<?xml version="1.0" encoding="iso-8859-1"?>
<!-- Generator: Adobe Illustrator 18.1.1, SVG Export Plug-In . SVG Version: 6.00 Build 0)  -->
<svg version="1.1" id="Capa_1" xmlns="http://www.w3.org/2000/svg" xmlns:xlink="http://www.w3.org/1999/xlink" x="0px" y="0px"
	 viewBox="0 0 46.752 46.752" style="enable-background:new 0 0 46.752 46.752;" xml:space="preserve">
<path id="github" d="M46.462,19.29c-0.5-3.3-1.9-5.9-3.7-9.2s-5.1-5.6-7.4-7.2c-2.3-1.6-5.5-2.4-8.6-2.7s-6.9-0.3-9.5,0.4
	c-3.6,0.9-5.9,1.9-8.3,4.1c-2.4,2.2-4.2,4.4-5.8,6.9c-1.5,2.5-2.7,6.3-2.9,8.2s0,4.4,0.6,7.3c0.7,2.9,2.1,5.6,4.3,8.9
	c2.1,3.3,5.1,5.3,8.5,7.4c3.4,2.1,10.7,3.7,13.4,3.3s6.5-1.3,10.4-4.4c3.9-3.1,6-8.1,7.2-11.3
	C46.062,27.79,46.862,22.59,46.462,19.29z M40.962,33.59c-0.1,0-1.6-2.7-1.7-2.9c-0.1-0.2,0.6-1.4,0.7-1.4c0.1,0,1.6,2.8,1.6,2.9
	S41.062,33.59,40.962,33.59z M35.262,15.69c-0.1-0.2-0.1-0.4-0.1-0.4c0-0.1,0.5-1.2,0.3-2.2c-0.1-1-0.6-2.6-0.5-2.6s1.8,1.4,2.8,3.6
	c1,2.3,1.9,4,2.2,7.1s0.2,5.3-0.9,7.4c-1.1,2.1-1.9,3.2-2.5,3.9c-0.6,0.6-1.9,1.2-2,1.2s-0.7-2.7-1.1-3.6c-0.4-0.9-1.2-2-1.2-2.2
	c0,0,1.3-1.1,1.7-1.8s1.9-3,1.8-5.7C35.762,17.79,35.362,15.89,35.262,15.69z M42.162,31.29c-0.1,0.1-1.9-3-1.8-3.1
	c0.2-0.2,0.7-1.8,0.8-1.8s1.8,3,1.8,3.2S42.362,31.19,42.162,31.29z M44.462,22.99c-0.2-0.2-1.6-3.3-1.8-3.4
	c-0.2-0.1-0.6,0.7-0.5,0.9s2,3.3,2,3.6c0.1,0.3-0.1,1.7-0.2,1.5c-0.1-0.2-1.4-2.9-1.6-2.9c-0.2,0-0.6,0.6-0.6,0.7
	c0,0.1,1.8,3.5,1.8,3.7s-0.3,1.6-0.4,1.3s-1.9-3.2-2-3.3c0-0.1,0-4.1-0.2-5.9c-0.2-1.8-0.9-5.4-3.4-8.3c-2.5-2.9-5.2-4.9-9-5.8
	c-3.8-0.9-6.2-0.9-9-0.7c-2.9,0.1-7,1.8-9.9,5.9c-2.8,4.1-3.3,5.2-3.9,8.2c-0.6,3,0.1,7.3,0.6,9.2s1.9,4.7,3.4,6.1
	c1.5,1.4,3.5,2.3,5,2.9c1.5,0.6,3.8,0.9,4,0.8c0.2-0.1,0.1-2.4,0-2.7s-0.2-0.4-0.8-0.4s-1.7,0-2.5-0.3c-0.7-0.3-1.3-1-1.8-1.8
	c-0.5-0.8-1-1.7-1.3-2c-0.3-0.4-1-1-0.9-1.1s1.3-0.2,2.2,0c0.9,0.3,2.4,1.3,3,1.7s1.5,1,1.7,1c0.3,0,0.9-1.3,1.1-1.7
	c0.3-0.3,0.8-1.4,0.6-1.6c-0.3-0.2-1.8-0.3-2.6-0.5s-2.2-1-3.2-2.3s-1.4-3.2-1.4-4.6c0-1.4,1.3-4,1.6-4.5s0.6-1,0.5-1.2
	c-0.2-0.2-0.9-1.2-1.1-1.9c-0.2-0.7,0.4-2.4,0.6-2.5c0.1-0.1,0.9,0.2,1.5,0.2c0.6,0.1,2,0.5,2.5,0.8s0.7,0.5,1,0.5s2.5-0.5,3.3-0.7
	s3-0.4,3.8-0.3c0.8,0.2,2.1,0.9,2.3,0.8c0.2-0.1,0.7-1.1,1.8-1.4c1.1-0.3,2.9-0.4,3.1-0.2c0.2,0.2,0.5,2.1,0.4,3.1
	c-0.2,1-0.5,1.6-0.3,1.8c0.2,0.3,1,2.1,0.6,3.7c-0.4,1.6-1,3.9-3,5.4s-2.7,1.8-2.9,1.9c-0.2,0.2,0,0.6,0.2,0.8s1.7,1.2,2.4,3.4
	s0.8,3.5,0.8,4s0.5,0.6,0.9,0.6c0.4-0.1,0.9-0.4,1.5-0.9s2.5-1.8,2.7-1.8c0.1,0.1,1.3,2.5,1.6,2.6s0.5-0.1,0.5-0.3s-0.9-2-1.2-2.5
	s-0.4-0.8-0.4-0.9c0.1-0.2,0.6-0.8,0.8-0.7c0.1,0.1,1.4,2.1,1.6,2.4c0.2,0.3,0.4,0.4,0.2,0.8c-0.2,0.4-1.1,1.5-1.5,1.8
	c-0.4,0.4-0.6,0.8-0.8,0.6s-1.4-2.3-1.6-2.3c-0.2,0-0.7,0.4-0.6,0.6s1.6,2.4,1.6,2.5s-0.8,1.1-1.6,1.7c-0.8,0.6-1.3,1-1.5,0.8
	s-1.7-3.9-2-3.9s-0.8,0.1-0.7,0.4c0.1,0.3,2,3.7,2,3.9s-0.6,0.6-0.8,0.4c-0.2-0.2-2.2-4.4-2.5-4.4s-0.7,0.1-0.7,0.5s2.6,4.1,2.5,4.3
	s-0.6,0.7-0.8,0.5s-2.6-5-2.8-5s-0.8,0.1-0.8,0.3c0,0.1,2.7,5.2,2.7,5.3s-1.1,0.6-1.3,0.5s-2.6-5.4-2.8-5.6
	c-0.2-0.1-0.9,0.4-0.9,0.5c0.1,0.1,2.9,5.1,2.8,5.3s-0.8,0.3-0.9,0.2c-0.1-0.1-2.8-5.3-3-5.3c-0.2-0.1-0.8,0.2-0.7,0.5
	s2.9,4.9,2.8,5c-0.1,0-0.8,0.1-0.9,0s-2.6-3.9-2.9-4s-0.7,0.4-0.7,0.5s2.3,3.5,2.2,3.5s-0.9,0-1.1-0.1c-0.2-0.1-1.8-3-2-3
	c-0.2-0.1-0.7,0.3-0.7,0.5c0.1,0.2,1.6,2.3,1.4,2.3s-0.7,0-1-0.1c-0.2-0.1-1.3-2.4-1.5-2.5s-0.6,0.2-0.6,0.3s0.9,1.7,0.7,1.7
	s-0.8,0-0.9-0.1c-0.2-0.1-1.2-1.8-1.3-1.9s-0.6,0.2-0.6,0.4c0.1,0.2,0.5,0.9,0.4,0.9c-0.2,0-3.6-0.9-5.5-2.2s-5.3-5.2-6.4-6.4
	c-1.1-1.2-2.6-4.8-3.1-6.7s-0.7-4.8-0.6-6.3c0-1.5,1.2-5.5,1.9-6.9s3.3-5.1,5-6.8s4.6-3.9,7.6-4.7c3-0.9,5.5-1.1,6.9-1.1
	c3.3,0,7,0.5,9.3,1.3s6.6,4.1,7.6,5.3s2.3,3.4,3.1,5s1.3,2.9,1.2,2.8s-1.1-1.8-1.3-1.7c-0.2,0-0.6,0.3-0.5,0.5s1.8,2.9,2,3.2
	s0.3,0.7,0.4,0.8c0,0.1,0.2,2.4,0.2,2.3c-0.1-0.1-1.7-3.1-1.9-3.2c-0.2-0.1-0.4,0.3-0.3,0.3c0.1,0.1,2.3,3.9,2.3,4.1
	S44.762,23.19,44.462,22.99z M13.962,15.79c0.4,0.3-0.5,0.9-1,2.1c-0.6,1.3-1.1,3.7-0.8,5.2s1,3.3,2.6,4.7s3.8,1.5,4,1.6
	s-0.4,1-0.5,1.1c-0.1,0.2-0.1,0.1-0.4,0s-2.2-1.7-4.1-2.1c-1.9-0.4-3.1,0.2-3.5,0.5c-0.4,0.4,0.1,1,0.6,1.4s1.2,1.2,2,2.6
	c0.8,1.4,1.3,1.8,2.6,2.2s2.3,0.5,2.5,0.5s0.2,0.6,0,0.8c-0.1,0.2-0.7-0.3-1.4-0.6c-0.8-0.2-2.2-0.4-3-0.9s-3.4-3.5-3.9-4.9
	c-0.5-1.3-1.5-4.3-1.5-5.8s-0.1-4.1,0.5-6s1.9-5.1,3.9-7.3s4.8-3.9,9-4.3c4.2-0.5,7.9,0.8,10.2,1.6s2.8,1.3,2.8,1.4
	c0,0-0.7,0.1-2.5,0.3c-1.8,0.1-3,1.1-3.1,1.2c-0.1,0.1-1.9-0.3-3.9-0.5c-1.9-0.2-4.6,0.7-4.7,0.7s-0.4,0-1.1-0.3
	c-0.7-0.3-4.2-1-4.6-1c-0.4,0-1.3,1.1-1.5,2.8C12.862,14.59,13.662,15.49,13.962,15.79z M27.662,1.59c-3-0.4-4.9-0.2-5.1-0.1
	c-0.3,0.3-0.2,0.8,0.2,0.9c0.4,0.1,2.2-0.2,4.5,0c2.4,0.2,4.1,1.1,4.5,1.1s0.6-0.6,0.4-0.8C31.962,2.49,30.662,1.99,27.662,1.59z
	 M5.362,12.79c-2.4,2.5-2.8,5.7-3,6.8s0.5,1.6,0.9,1.4s0-1.1,0.8-3.6s1.8-3.4,2.1-4C6.362,12.89,5.562,12.59,5.362,12.79z
	 M16.362,22.39c-0.3-0.7-0.1-1.6,0.1-2.4s-0.6-0.8-0.8-0.6c-0.5,0.5-0.7,2-0.5,3s1,2.4,1.5,2.6c0.5,0.2,0.9-0.1,0.8-0.5
	C17.362,23.99,16.662,23.09,16.362,22.39z M13.662,30.09c-0.7,0.5,0,1,0.3,1s0.6-0.1,0.5-0.6
	C14.262,30.09,13.862,29.99,13.662,30.09z M15.162,31.49c-0.5,0.3-0.1,1,0.3,1c0.4,0,0.6-0.3,0.7-0.6
	C16.262,31.59,15.362,31.29,15.162,31.49z M17.262,32.39c-0.8,0.2-0.5,0.9-0.1,1s0.7-0.1,0.8-0.5
	C18.062,32.49,17.762,32.29,17.262,32.39z M30.762,13.09c0.2,0,0.7,0.1,0.9,0.1s0.2,1.4,0.3,1.8c0.1,0.4,0.7,0.4,1,0.2
	c0.2-0.2-0.1-2.5-0.3-2.7s-1.8,0.1-2,0.1C30.562,12.59,30.562,12.99,30.762,13.09z M35.262,39.69c0.2,0,0.6-0.2,0.6-0.4
	c0-0.3-1.3-3.3-1.4-3.4c-0.1-0.1-0.9,0.2-0.9,0.3C33.662,36.49,35.062,39.69,35.262,39.69z"/>
<g>
</g>
<g>
</g>
<g>
</g>
<g>
</g>
<g>
</g>
<g>
</g>
<g>
</g>
<g>
</g>
<g>
</g>
<g>
</g>
<g>
</g>
<g>
</g>
<g>
</g>
<g>
</g>
<g>
</g>
</svg>
