<?xml version="1.0" encoding="iso-8859-1"?>
<!-- Generator: Adobe Illustrator 18.1.1, SVG Export Plug-In . SVG Version: 6.00 Build 0)  -->
<svg version="1.1" id="Capa_1" xmlns="http://www.w3.org/2000/svg" xmlns:xlink="http://www.w3.org/1999/xlink" x="0px" y="0px"
	 viewBox="0 0 46.404 46.404" style="enable-background:new 0 0 46.404 46.404;" xml:space="preserve">
<path id="linked_x5F_in" d="M3.518,14.342c1.4,0.9,4.1,0.9,5.9,0.8c1.7-0.1,4.5-2.3,4.6-6.1c0.2-3.8-2.5-5.8-2.5-5.8
	c-3.2-2.8-7.7-1.2-8.6-0.6c-0.9,0.6-3.5,2.9-2.8,6C0.818,11.842,1.818,13.242,3.518,14.342z M2.218,4.542c0.7-1,2.2-2,5-1.6
	c2.9,0.4,3.7,1.7,4.4,2.9c0.8,1.2,0.7,2.2,0.7,2.2s-1.8-3.2-2.1-3.1c-0.3,0.1-0.7,0.6-0.5,0.9s2.3,3.1,2.2,3.3s-0.2,0.8-0.3,0.6
	s-1.8-3.1-2-3.1c-0.2,0.1-0.5,0.4-0.4,0.8c0.2,0.4,2,2.9,1.9,3s-0.4,0.6-0.5,0.4s-1.5-2.9-1.8-2.8s-0.5,0.4-0.3,0.8s1.7,2.4,1.6,2.5
	s-0.4,0.4-0.5,0.3s-1.6-2.4-1.8-2.4c-0.2,0-0.7,0.5-0.4,0.8c0.3,0.3,1.5,1.9,1.4,2c-0.2,0.1-1.1,0.3-1.3,0.2s-0.9-1.6-1.1-1.6
	c-0.2,0-0.7,0.4-0.6,0.7s1,1.1,0.7,1.2s-2.9-0.3-4-1.1C1.418,10.642,0.218,7.342,2.218,4.542z M4.018,10.342
	c0.2-0.2,0.2-0.3,0.2-0.5s-0.7-0.7-0.8-1.1s0-1.6,0.6-2.2s0.7-1,0.3-1.2s-1.5,0.4-1.7,1.8c-0.2,1.3,0,2.5,0.4,3
	C3.218,10.542,3.718,10.542,4.018,10.342z M6.418,19.642c-0.5-0.2-3.2-0.2-3.6-0.1s-0.4,3.8-0.4,4.2c0.1,0.4,0,1,0.3,1.1
	c0,0,0.6,0.1,0.7,0c0.2-0.1,0.3-3.8,0.3-4c0.1-0.3,2.8-0.1,2.9-0.2C6.918,20.542,7.018,19.842,6.418,19.642z M13.018,17.442
	c-1-0.4-6.2-0.5-8-0.5s-3.9-0.1-4.1,0.3c-0.2,0.3-0.1,7.6-0.2,12.4s-0.4,12-0.3,12.3c0.2,0.3,3.1,2.3,3.3,2.5
	c0.2,0.2,0.8,0.3,2.3,0.2s6.6,0.2,7.2,0.1s1.3-0.4,1.5-0.8s0.3-2.6,0.4-7.6s0.8-11.6,0.7-14.2S14.018,17.742,13.018,17.442z
	 M13.018,23.642c-0.2-0.1-1.6-2.4-1.8-2.1c-0.3,0.3-0.3,0.5,0,1s1.7,2.6,1.8,2.9c0,0.3,0.1,1.5,0,1.5s-1.8-2.7-2-2.6
	s-0.4,0.6-0.4,0.7s2.2,3,2.3,3.5s0,1.2-0.1,1.1s-1.7-3.3-2-3.2c-0.3,0.2-0.5,0.7-0.3,1.1s2.2,3.1,2.2,3.3s0,1.4-0.1,1.3
	s-1.8-3.2-2-3.2c-0.3,0-0.5,0.7-0.4,1c0.1,0.4,2.5,3.5,2.4,3.8s0,1.7-0.2,1.6c-0.1-0.1-2.1-3.7-2.3-3.7c-0.2-0.1-0.5,0.6-0.4,0.9
	s2.6,4.4,2.6,4.7c0,0.4,0,2.3-0.2,2.2c-0.2-0.1-2.4-4.5-2.8-4.6s-0.4,0.8-0.4,1c0.1,0.2,3,4.7,3,4.9s0,0.5-0.3,0.6s-0.4,0.1-0.4,0
	s-2.2-3.9-2.6-4.1s-0.6,0.4-0.6,0.5s2.7,3.6,2.4,3.8c-0.3,0.2-1,0.3-1.1,0.1c-0.2-0.2-2.4-4-2.6-4c-0.3,0-0.8,0.7-0.6,0.8
	c0.2,0.2,2.3,3.2,2.1,3.2c-0.2,0-0.9,0.2-1.1,0.1c-0.2-0.2-1.9-3-2.1-3c-0.3,0-0.5,0.4-0.5,0.4s1.7,2.4,1.5,2.4s-0.9,0.1-1,0
	s-1.2-2.2-1.4-2.2c-0.2-0.1-0.6,0.4-0.6,0.5s1.3,1.7,1,1.7s-1.8-0.1-1.9-0.1c-0.1-0.1-0.6-0.6-0.7-1.1s0.2-22.2,0.4-22.6
	c0.1-0.1,4.5,0.1,6.8,0.2s3.8-0.1,4.1,0.3c0.3,0.4,0.4,2.4,0.3,2.3s-1-1.9-1.3-1.8s-0.5,0.7-0.4,1c0.2,0.3,1.6,2.4,1.7,2.7
	C13.218,23.042,13.218,23.642,13.018,23.642z M46.318,25.942c-0.2-3.2-2-5.6-4.4-7.1c-2.4-1.6-6.6-2-9.4-1.4
	c-2.8,0.6-5.8,3.2-5.9,3.1c-0.1,0,0-2.2-0.1-2.7s-1-0.5-3.4-0.5s-5.6,0-5.7,0.2c-0.1,0.6,0.1,11.6,0.1,15.6s-0.2,8.3,0,8.9
	c0.2,0.5,1.8,2.4,2.4,2.4s6.5-0.1,7.4-0.2s1-1.1,1-2.3c0-1.3,0-11,0.4-14c0.4-3.1,2.9-4.2,4.8-3.7c2,0.5,2.3,2.7,2.7,5.4
	s-0.4,10.3-0.4,11.1s0.1,3.3,0.6,3.4c0.5,0.2,7.3,0,8.3,0c1-0.1,1.4-0.2,1.5-0.9S46.518,29.142,46.318,25.942z M42.618,24.142
	c0.1,0.1,2.4,3.8,2.4,4.1s0,1-0.1,1c-0.1-0.1-1.6-2.9-1.9-2.9c-0.3,0-0.7,0.6-0.5,0.8c0.1,0.2,2.3,3.5,2.3,3.7c0,0.3,0.1,1.8,0,1.6
	c-0.1-0.1-2-3.5-2.2-3.5s-0.4,0.6-0.4,0.8c0,0.3,2.4,4,2.4,4.1s0,2.4-0.2,2.4s-0.9-1.2-1.5-2.5s-0.7-1.7-1-1.6s-0.2,1.1-0.1,1.3
	c0.1,0.3,2.4,4.1,2.4,4.3c0,0.2,0.1,1.9-0.1,1.8s-2.3-4.6-2.5-4.6c-0.3,0-0.6,0.7-0.5,0.8c0.1,0.1,2.6,4.3,2.6,4.9
	c0.1,0.6,0,0.9-0.2,0.9s-0.3-0.1-0.4-0.3c-0.1-0.2-2.4-4-2.5-4.1c-0.1,0-0.5,0.7-0.3,0.9c0.1,0.2,2.2,3.3,2.1,3.3c-0.1,0-1,0-1.1,0
	c-0.1-0.1-1.8-2.7-2-2.7c-0.1,0-0.6,0.6-0.5,0.7s1.5,1.9,1.3,2s-0.8,0.1-0.9,0s-1.1-1.9-1.4-1.9c-0.3,0-0.5,0.5-0.4,0.6
	s1,1.4,0.8,1.5c-0.3,0.1-1.1,0.1-1.1,0s0.4-3.3,0.5-6.1c0-2.8-0.2-5.7-0.5-7.6s-0.5-3.7-1.8-4.4c-1.3-0.7-3.6-1.1-5.4,0
	c-1.8,1.1-2.4,2.3-2.7,2.7c-0.3,0.4-0.3,0.8-0.3,0.8s-0.9-1.6-1.3-1.2c-0.4,0.5-0.4,0.7-0.3,0.9c0.1,0.1,1.1,1,1.2,1.3
	c0,0.4,0.1,2.1,0,2.1s-1.3-2.3-1.5-2.2c-0.3,0.1-0.3,1-0.3,1.1s1.5,2.2,1.5,2.5s0,1.5-0.1,1.5c-0.1-0.1-1.7-2.9-1.8-2.8
	c-0.2,0.1-0.5,0.6-0.4,0.8c0,0.2,2.4,3.7,2.4,3.8c0,0.2,0,2.1-0.2,2.1s-2-3.8-2.2-3.8c-0.1,0-0.6,0.7-0.5,0.9
	c0.1,0.2,2.6,4.1,2.7,4.4c0.1,0.3,0.1,2.3,0,2.3s-2.7-5.3-2.8-5.3c-0.2,0-0.6,0.7-0.6,0.8c0,0.1,2.8,4.8,2.8,5.1
	c0,0.2-0.1,0.3-0.1,0.3s-0.2,0.1-0.3,0s-2.2-3.6-2.4-3.7c-0.2-0.1-0.7,0.5-0.6,0.7s2.3,2.9,2.2,3.1c-0.1,0.1-1.1,0.1-1.2,0
	c-0.1-0.1-1.7-2.9-1.9-2.9c-0.2,0-0.6,0.7-0.6,0.8c0,0.1,1.5,2.1,1.5,2.2s-0.9,0.1-0.9,0c-0.1-0.1-1.4-2.2-1.7-2.2
	c-0.3,0-0.5,0.7-0.4,0.8c0.1,0.1,1.2,1.6,1,1.6s-1.7,0.1-1.7-0.3s0.3-7.6,0.3-10s-0.3-12.6-0.1-13.2c0-0.1,4.7,0,5.5,0
	s1.3,0,1.4,0.1c0.1,0.1,0,3.9,0.2,4.1c0.3,0.1,1-0.6,1.2-0.8c0.2-0.2,1.3-1.1,3.7-2.3c2.4-1.1,5.7-1.4,7.3-1
	c1.7,0.4,3.5,0.9,4.7,2.5s2,3,2.3,3.8c0.2,0.9,0.2,1.6,0.1,1.6c-0.1,0-1.5-3.5-1.9-3.4C42.618,23.142,42.518,24.042,42.618,24.142z
	 M23.618,19.542c-0.3-0.2-3.2-0.1-3.4-0.1c-0.2,0-0.3,0.4-0.3,0.5c0,0-0.1,0.4,0.1,0.6c0.1,0.2,2.5,0.1,2.7,0.1
	c0.3,0,0.3,1.2,0.3,1.5s0.9,0.1,1,0.1s0.1-0.4,0.1-1C24.218,20.642,23.918,19.742,23.618,19.542z M33.318,21.042
	c-0.3,0.2-0.3,0.7,0.1,0.9c0.4,0.2,2.4,0.6,3.4,1.4s1,3.1,1.1,3.4c0,0.2,0.7,0.4,1,0.1s0.2-2-0.9-3.9
	C36.818,21.042,33.518,20.942,33.318,21.042z"/>
<g>
</g>
<g>
</g>
<g>
</g>
<g>
</g>
<g>
</g>
<g>
</g>
<g>
</g>
<g>
</g>
<g>
</g>
<g>
</g>
<g>
</g>
<g>
</g>
<g>
</g>
<g>
</g>
<g>
</g>
</svg>
