<?xml version="1.0" encoding="iso-8859-1"?>
<!-- Generator: Adobe Illustrator 18.1.1, SVG Export Plug-In . SVG Version: 6.00 Build 0)  -->
<svg version="1.1" id="Capa_1" xmlns="http://www.w3.org/2000/svg" xmlns:xlink="http://www.w3.org/1999/xlink" x="0px" y="0px"
	 viewBox="0 0 45.133 45.133" style="enable-background:new 0 0 45.133 45.133;" xml:space="preserve">
<path id="twitter" d="M43.833,12.015c0,0,0.6-1,0.7-1.6s0.1-1.3-0.2-1.6c-0.3-0.3-1.5,0.2-2.5,0.5s-2.9,0.6-2.9,0.6s-1.2-3.6-3.2-5
	s-4.5-1.4-6.7-0.9s-4.9,1.9-6.1,3.4s-2.3,4.4-2.7,5.6c-0.4,1.2-1.1,3.2-2,3.4c-0.8,0.2-2.4-0.4-3.8-1.3c-1.3-0.8-4.8-3.7-6.6-5.3
	c-1.7-1.6-4.2-4.4-5-4.2s-1.7,3.1-1.7,5.2s1.8,4.1,1.8,4.1c-0.7,2.7-0.3,4.6,0.4,6.1c0.7,1.4,2.3,2.4,2.3,2.4
	c-0.2,0.9-0.1,2.1,0.2,3.1c0.3,1,2.1,2.3,2.1,2.3s-1,0.8-2.7,1.3c-1.6,0.5-4.8,0-5.1,0c-0.3,0.1,0,4.3,0,4.9c0,0.6,0.4,1.1,1,1.5
	c0.5,0.4,4.9,2.6,11,4.2c6.1,1.6,10.9,0.2,14.5-1.4c3.6-1.6,7.5-6.4,10.1-10.3c2.5-3.9,4.2-9.5,4.2-9.5s0.9-0.5,2.3-1.5
	c1.3-1,1.8-2.7,1.9-3.8C44.933,12.915,43.833,12.015,43.833,12.015z M40.833,14.315c0.4,0,2.1-1,2.3-0.8c0.2,0.2-0.5,1.5-1.7,2.2
	c-1.2,0.7-2.2,1.1-2.4,1c-0.2-0.1-1.1-1.7-1.2-1.7c-0.2,0-0.6,0.4-0.5,0.6s1.1,1.5,1,1.7s-0.2,0.3-0.3,0.2s-1.1-2.1-1.3-2.2
	c-0.3-0.1-0.6,0.5-0.5,0.8c0.2,0.3,1.4,1.9,1.4,2.1c0,0.3-0.3,1.4-0.4,1.2c-0.1-0.2-1.6-3-1.8-3s-0.5,0.7-0.4,0.9
	c0.1,0.2,1.9,2.8,1.9,3.1s-0.5,1.4-0.7,1.2c-0.2-0.2-1.7-3.6-1.9-3.6c-0.2,0-0.6,0.6-0.6,0.7c0,0.2,2,3.5,2.1,3.8s-0.4,1.7-0.6,1.6
	c-0.2-0.1-1.8-4.2-2-4.2s-0.5,0.6-0.4,0.8c0.1,0.3,2,3.9,2,4.2s-0.3,0.8-0.4,0.8s-2.1-5.1-2.3-5.1c-0.2,0-0.5,0.5-0.3,1.1
	s2.2,4.4,2.3,4.7c0,0.3-0.5,1-0.6,0.9s-2.2-4.9-2.4-4.9s-0.5,0.8-0.3,1.1s2.4,4.2,2.4,4.3s-0.6,1-0.7,1c-0.2-0.1-2-4.5-2.2-4.5
	s-0.6,0.5-0.4,1s2.2,3.9,2.1,4.1c-0.1,0.2-0.6,1-0.7,0.8s-2.1-4.7-2.3-4.7s-0.8,0.5-0.6,0.9c0.2,0.4,2.4,4.4,2.3,4.5s-0.9,1.1-1,1.1
	c-0.1-0.1-2.3-4.7-2.5-4.6c-0.2,0.1-0.6,0.4-0.4,0.8s2.4,4.2,2.3,4.4s-0.6,0.6-0.8,0.5s-2.4-4.7-2.6-4.7s-0.7,0.7-0.6,0.9
	c0.2,0.3,2.6,4,2.5,4.2s-0.9,0.8-1,0.7s-2-3.9-2.3-3.9c-0.4,0-0.7,0.6-0.5,0.8s2.1,3.4,2.1,3.4s-0.9,0.6-1.1,0.4
	c-0.2-0.2-1.7-3.7-1.8-3.7s-0.8,0.4-0.5,0.8c0.3,0.4,1.8,3.1,1.7,3.2c-0.2,0.1-0.6,0.4-0.8,0.2c-0.2-0.2-1.7-3.7-1.9-3.7
	s-0.8,0.3-0.6,0.5s1.8,3.5,1.7,3.6c-0.1,0.1-1.1,0.4-1.2,0.2c-0.1-0.1-1.5-3.1-1.7-3.1s-0.5,0.4-0.4,0.5c0.1,0.2,1.5,2.7,1.4,2.7
	c-0.1,0.1-1.1,0.2-1.2,0.1s-1.4-3.1-1.6-3.2c-0.2-0.1-0.7,0.4-0.6,0.6s1.3,2.5,1.1,2.6s-1,0.1-1.1-0.1c-0.1-0.2-1.2-2.6-1.4-2.7
	c-0.2-0.1-0.6,0.1-0.5,0.5c0.2,0.4,1.3,2.5,1.2,2.5s-1.1,0-1.2-0.1s-1.1-2.6-1.3-2.6c-0.2-0.1-0.8-0.1-0.7,0.2
	c0.1,0.3,1.2,2.2,1,2.2s-1.2-0.2-1.4-0.4c-0.2-0.2-1.1-2.5-1.3-2.5s-0.6,0.2-0.6,0.5c0.1,0.3,1,1.9,0.7,1.9
	c-0.2-0.1-1.3-0.2-1.3-0.4s-1-2.2-1.2-2.3s-0.8,0-0.6,0.3c0.2,0.3,0.8,1.7,0.7,1.7s-2.5-0.7-4.4-1.7s-3.7-2.6-3.5-2.6
	s2.8,0.2,4.5-0.5s3.5-1.3,3.6-1.5s-0.2-0.7-0.3-0.7c-0.1,0-2.2-0.7-2.6-2.2c-0.5-1.5-0.1-3.2-0.4-3.4c-0.3-0.2-1.7-0.8-2.4-3
	c-0.7-2.2,0.1-5.2-0.1-5.4s-0.4-0.6-0.6-0.5c-0.3,0.1-1.1-1.6-1.1-3.3c0-1.6,0.7-3.8,0.8-3.8s4.7,4.4,7.1,6.4s5.2,4.1,6.8,4.4
	c1.6,0.3,2.3,0.3,3.1-1.2c0.8-1.6,1.6-5.4,2.8-7.2c1.2-1.8,3.6-3.8,6.7-4.3s5.5,0.4,6.7,2.1s1.3,4,1.6,4.2s1.6,0.1,3.3-0.4
	c1.6-0.6,2.2-0.7,2.3-0.7s-0.4,1-1.4,1.9s-1.8,1.5-1.8,1.9S40.433,14.315,40.833,14.315z M4.233,11.315c-0.5-0.4-0.3-1.3-0.2-1.9
	c0.1-0.7-0.9-0.5-1.1,0.2s0,1.7,0.6,2.2s1.1,0.5,1.3,0.4C5.033,12.115,4.633,11.715,4.233,11.315z M18.333,18.515
	c-0.4-0.1-1.3,0.5-2.3-0.1c-1-0.5-1.9-1.7-2.4-1.5c-0.3,0.1-0.6,0.5,0.1,1.2s2.1,1.3,3.2,1.3
	C18.133,19.415,18.733,18.615,18.333,18.515z M25.233,9.615c-0.3-0.1-1.3,0.6-1.8,1.5s-1.3,2.6-0.7,2.9c0.4,0.2,0.6-0.1,0.9-1
	c0.3-1,0.9-2.1,1.2-2.5C25.233,10.215,25.533,9.715,25.233,9.615z"/>
<g>
</g>
<g>
</g>
<g>
</g>
<g>
</g>
<g>
</g>
<g>
</g>
<g>
</g>
<g>
</g>
<g>
</g>
<g>
</g>
<g>
</g>
<g>
</g>
<g>
</g>
<g>
</g>
<g>
</g>
</svg>
